{"asset":{"generator":"Khronos glTF Blender I/O v4.0.44","version":"2.0"},"scene":0,"scenes":[{"name":"Scene","nodes":[0]}],"nodes":[{"mesh":0,"name":"Hair_Long"}],"materials":[{"doubleSided":true,"name":"MI_Hair_2","pbrMetallicRoughness":{"metallicFactor":0,"roughnessFactor":0.76,"baseColorTexture":{"index":0}}}],"meshes":[{"name":"NurbsCurve.065","primitives":[{"attributes":{"POSITION":0,"NORMAL":1,"TEXCOORD_0":2},"indices":3,"material":0}]}],"accessors":[{"bufferView":0,"componentType":5126,"count":3080,"max":[0.12235528230667114,1.7772293090820312,0.108856201171875],"min":[-0.12235528230667114,1.5008693933486938,-0.1615891009569168],"type":"VEC3"},{"bufferView":1,"componentType":5126,"count":3080,"type":"VEC3"},{"bufferView":2,"componentType":5126,"count":3080,"type":"VEC2"},{"bufferView":3,"componentType":5123,"count":8718,"type":"SCALAR"}],"bufferViews":[{"buffer":0,"byteLength":36960,"byteOffset":0,"target":34962},{"buffer":0,"byteLength":36960,"byteOffset":36960,"target":34962},{"buffer":0,"byteLength":24640,"byteOffset":73920,"target":34962},{"buffer":0,"byteLength":17436,"byteOffset":98560,"target":34963}],"buffers":[{"byteLength":115996,"uri":"Hair_Long.bin"}],"images":[{"name":"Superhero_Female_FullBody_T_Hair_2_BaseColor","mimeType":"image/jpeg","uri":"Superhero_Female_FullBody_T_Hair_2_BaseColor.jpg"}],"textures":[{"sampler":0,"source":0}],"samplers":[{"magFilter":9729,"minFilter":9987,"wrapS":10497,"wrapT":10497}]}